<?xml version="1.0" encoding="UTF-8" standalone="no"?>
<!DOCTYPE svg PUBLIC "-//W3C//DTD SVG 1.1//EN" "http://www.w3.org/Graphics/SVG/1.1/DTD/svg11.dtd">
<svg width="100%" height="100%" viewBox="0 0 2270 2263" version="1.1" xmlns="http://www.w3.org/2000/svg" xmlns:xlink="http://www.w3.org/1999/xlink" xml:space="preserve" xmlns:serif="http://www.serif.com/" style="fill-rule:evenodd;clip-rule:evenodd;stroke-linejoin:round;stroke-miterlimit:2;">
    <g transform="matrix(1,0,0,1,-5621.11,-8372.41)">
        <g id="magnifying-glass.svg" transform="matrix(-46.5153,0,0,46.5153,6737.47,9518.59)">
            <g transform="matrix(1,0,0,1,-24,-24)">
                <g>
                    <g transform="matrix(1,0,0,1,0,-0.9375)">
                        <path d="M18.748,12.816C17.007,12.883 15.435,13.504 14.594,14.345C14.204,14.736 13.571,14.736 13.18,14.346C12.79,13.955 12.79,13.322 13.18,12.931C14.477,11.634 16.589,10.898 18.67,10.817C20.765,10.736 23.052,11.309 24.654,12.911C25.044,13.302 25.044,13.935 24.654,14.325C24.263,14.716 23.63,14.716 23.239,14.325C22.148,13.234 20.475,12.748 18.748,12.816Z" style="fill:rgb(255,196,81);fill-rule:nonzero;"/>
                    </g>
                    <path d="M28.936,27.384C30.848,25.121 32,22.195 32,19C32,11.82 26.18,6 19,6C11.82,6 6,11.82 6,19C6,26.18 11.82,32 19,32C22.195,32 25.121,30.848 27.384,28.936L27,31.144L34.514,38.658L38.658,34.514L31.144,27L28.936,27.384ZM19,29C24.523,29 29,24.523 29,19C29,13.477 24.523,9 19,9C13.477,9 9,13.477 9,19C9,24.523 13.477,29 19,29Z" style="fill:rgb(255,196,81);"/>
                    <path d="M35.928,40.072L40.072,35.928L41.428,37.284C42.191,38.047 42.191,39.284 41.428,40.046L40.046,41.428C39.283,42.191 38.047,42.191 37.284,41.428L35.928,40.072Z" style="fill:rgb(255,196,81);fill-rule:nonzero;"/>
                </g>
            </g>
        </g>
        <g id="film-1-.svg" serif:id="film(1).svg" transform="matrix(0.688622,0.663311,-0.663311,0.688622,6949.09,9306.97)">
            <g transform="matrix(1,0,0,1,-256,-256)">
                <clipPath id="_clip1">
                    <rect x="0" y="0" width="512" height="512"/>
                </clipPath>
                <g clip-path="url(#_clip1)">
                    <path d="M488,64L480,64L480,84C480,90.6 474.6,96 468,96L428,96C421.4,96 416,90.6 416,84L416,64L96,64L96,84C96,90.6 90.6,96 84,96L44,96C37.4,96 32,90.6 32,84L32,64L24,64C10.7,64 0,74.7 0,88L0,424C0,437.3 10.7,448 24,448L32,448L32,428C32,421.4 37.4,416 44,416L84,416C90.6,416 96,421.4 96,428L96,448L416,448L416,428C416,421.4 421.4,416 428,416L468,416C474.6,416 480,421.4 480,428L480,448L488,448C501.3,448 512,437.3 512,424L512,88C512,74.7 501.3,64 488,64ZM96,372C96,378.6 90.6,384 84,384L44,384C37.4,384 32,378.6 32,372L32,332C32,325.4 37.4,320 44,320L84,320C90.6,320 96,325.4 96,332L96,372ZM96,276C96,282.6 90.6,288 84,288L44,288C37.4,288 32,282.6 32,276L32,236C32,229.4 37.4,224 44,224L84,224C90.6,224 96,229.4 96,236L96,276ZM96,180C96,186.6 90.6,192 84,192L44,192C37.4,192 32,186.6 32,180L32,140C32,133.4 37.4,128 44,128L84,128C90.6,128 96,133.4 96,140L96,180ZM368,388C368,394.6 362.6,400 356,400L156,400C149.4,400 144,394.6 144,388L144,292C144,285.4 149.4,280 156,280L356,280C362.6,280 368,285.4 368,292L368,388ZM368,220C368,226.6 362.6,232 356,232L156,232C149.4,232 144,226.6 144,220L144,124C144,117.4 149.4,112 156,112L356,112C362.6,112 368,117.4 368,124L368,220ZM480,372C480,378.6 474.6,384 468,384L428,384C421.4,384 416,378.6 416,372L416,332C416,325.4 421.4,320 428,320L468,320C474.6,320 480,325.4 480,332L480,372ZM480,276C480,282.6 474.6,288 468,288L428,288C421.4,288 416,282.6 416,276L416,236C416,229.4 421.4,224 428,224L468,224C474.6,224 480,229.4 480,236L480,276ZM480,180C480,186.6 474.6,192 468,192L428,192C421.4,192 416,186.6 416,180L416,140C416,133.4 421.4,128 428,128L468,128C474.6,128 480,133.4 480,140L480,180Z" style="fill:rgb(255,196,81);fill-rule:nonzero;stroke:rgb(255,196,81);stroke-width:1px;"/>
                </g>
            </g>
        </g>
        <g transform="matrix(0.642154,0,0,0.642154,3825.94,4834.06)">
            <path d="M4393.34,5652.87C4395.88,5658.15 4397.8,5662.69 4399.1,5666.51C4400.4,5670.33 4401.08,5673.53 4401.13,5676.11C4401.18,5678.69 4400.84,5680.8 4400.12,5682.45C4399.4,5684.1 4398.24,5685.31 4396.66,5686.07L4285.03,5739.89L4329.31,5831.73L4434.08,5781.21C4435.66,5780.45 4437.28,5780.21 4438.94,5780.5C4440.59,5780.78 4442.41,5781.75 4444.4,5783.39C4446.38,5785.04 4448.44,5787.51 4450.58,5790.82C4452.72,5794.12 4455.06,5798.42 4457.6,5803.69C4460.15,5808.97 4462.05,5813.48 4463.3,5817.21C4464.56,5820.94 4465.26,5824.18 4465.39,5826.94C4465.53,5829.69 4465.21,5831.85 4464.45,5833.41C4463.68,5834.97 4462.51,5836.13 4460.92,5836.89L4356.16,5887.41L4417.48,6014.61C4418.42,6016.54 4418.7,6018.47 4418.32,6020.38C4417.94,6022.3 4416.62,6024.4 4414.36,6026.68C4412.1,6028.96 4408.9,6031.43 4404.76,6034.08C4400.61,6036.73 4395.11,6039.7 4388.25,6043.01C4381.56,6046.24 4375.85,6048.66 4371.11,6050.3C4366.37,6051.94 4362.45,6052.91 4359.34,6053.21C4356.23,6053.52 4353.77,6053.24 4351.95,6052.38C4350.13,6051.53 4348.75,6050.13 4347.82,6048.2L4198.57,5738.65C4194.83,5730.9 4194.12,5724.36 4196.43,5719.03C4198.73,5713.69 4202.78,5709.62 4208.59,5706.82L4369.3,5629.33C4370.89,5628.57 4372.53,5628.37 4374.23,5628.75C4375.92,5629.12 4377.79,5630.17 4379.81,5631.91C4381.84,5633.64 4383.97,5636.25 4386.19,5639.73C4388.41,5643.21 4390.79,5647.59 4393.34,5652.87Z" style="fill:rgb(255,196,81);fill-rule:nonzero;"/>
            <path d="M4671.13,5924C4671.61,5925.89 4671.47,5927.69 4670.7,5929.4C4669.93,5931.11 4668.3,5932.79 4665.8,5934.44C4663.3,5936.09 4659.84,5937.73 4655.42,5939.37C4651,5941.01 4645.29,5942.73 4638.29,5944.53C4631.29,5946.32 4625.46,5947.57 4620.8,5948.26C4616.14,5948.95 4612.31,5949.18 4609.32,5948.94C4606.34,5948.69 4604.1,5948.01 4602.6,5946.88C4601.1,5945.76 4600.11,5944.25 4599.62,5942.36L4534.79,5689.8C4534.3,5687.91 4534.44,5686.11 4535.21,5684.4C4535.98,5682.69 4537.61,5680.96 4540.08,5679.22C4542.56,5677.47 4545.99,5675.73 4550.39,5674C4554.78,5672.27 4560.48,5670.5 4567.48,5668.7C4574.48,5666.91 4580.32,5665.71 4585.01,5665.11C4589.69,5664.51 4593.54,5664.38 4596.55,5664.72C4599.56,5665.06 4601.82,5665.79 4603.32,5666.91C4604.82,5668.04 4605.81,5669.55 4606.3,5671.44L4671.13,5924ZM4589.54,5583.8C4593.23,5598.17 4592.85,5608.86 4588.39,5615.85C4583.94,5622.84 4573.76,5628.38 4557.87,5632.45C4541.79,5636.58 4530.28,5636.72 4523.34,5632.85C4516.4,5628.99 4511.16,5620.15 4507.61,5606.34C4503.92,5591.96 4504.24,5581.24 4508.58,5574.18C4512.92,5567.12 4523.13,5561.52 4539.21,5557.4C4555.1,5553.32 4566.57,5553.24 4573.63,5557.18C4580.69,5561.11 4586,5569.98 4589.54,5583.8Z" style="fill:rgb(255,196,81);fill-rule:nonzero;"/>
            <path d="M4817.91,5902.77C4818.12,5904.71 4817.72,5906.47 4816.72,5908.05C4815.71,5909.64 4813.85,5911.07 4811.14,5912.34C4808.43,5913.61 4804.77,5914.75 4800.16,5915.74C4795.55,5916.73 4789.66,5917.61 4782.47,5918.39C4775.29,5919.16 4769.34,5919.56 4764.62,5919.58C4759.91,5919.6 4756.1,5919.27 4753.18,5918.6C4750.26,5917.94 4748.13,5916.94 4746.81,5915.61C4745.49,5914.28 4744.72,5912.64 4744.51,5910.7L4703.12,5527.68C4702.91,5525.73 4703.3,5523.92 4704.3,5522.24C4705.3,5520.57 4707.14,5519.04 4709.85,5517.67C4712.55,5516.3 4716.19,5515.07 4720.79,5513.98C4725.39,5512.89 4731.28,5511.96 4738.46,5511.19C4745.65,5510.41 4751.6,5510.06 4756.33,5510.14C4761.05,5510.22 4764.88,5510.64 4767.81,5511.4C4770.74,5512.17 4772.87,5513.26 4774.2,5514.69C4775.54,5516.12 4776.31,5517.8 4776.52,5519.74L4817.91,5902.77Z" style="fill:rgb(255,196,81);fill-rule:nonzero;"/>
            <path d="M5304.82,5962.86C5304.44,5964.77 5303.52,5966.33 5302.08,5967.53C5300.64,5968.73 5298.48,5969.54 5295.61,5969.95C5292.74,5970.36 5288.95,5970.34 5284.26,5969.89C5279.57,5969.43 5273.69,5968.48 5266.6,5967.05C5259.33,5965.57 5253.45,5964.12 5248.95,5962.71C5244.45,5961.3 5240.91,5959.83 5238.33,5958.31C5235.75,5956.79 5234.08,5955.2 5233.32,5953.56C5232.56,5951.91 5232.37,5950.12 5232.76,5948.21L5263.63,5796.33C5265.38,5787.72 5266.16,5779.71 5265.97,5772.3C5265.78,5764.88 5264.53,5758.3 5262.21,5752.55C5259.89,5746.8 5256.48,5742.02 5251.97,5738.21C5247.46,5734.4 5241.67,5731.78 5234.59,5730.34C5225.97,5728.59 5216.58,5730.17 5206.42,5735.08C5196.25,5739.99 5184.7,5747.81 5171.76,5758.53L5137.16,5928.78C5136.77,5930.7 5135.86,5932.25 5134.41,5933.46C5132.98,5934.66 5130.77,5935.46 5127.8,5935.85C5124.83,5936.24 5121,5936.21 5116.31,5935.76C5111.62,5935.3 5105.83,5934.37 5098.94,5932.97C5091.86,5931.53 5086.07,5930.11 5081.57,5928.7C5077.07,5927.28 5073.53,5925.82 5070.95,5924.3C5068.37,5922.78 5066.65,5921.18 5065.8,5919.51C5064.94,5917.84 5064.71,5916.05 5065.1,5914.14L5095.96,5762.26C5097.71,5753.65 5098.49,5745.64 5098.31,5738.22C5098.12,5730.81 5096.91,5724.24 5094.69,5718.5C5092.47,5712.77 5089.05,5707.99 5084.45,5704.17C5079.84,5700.34 5074.1,5697.73 5067.21,5696.33C5058.4,5694.54 5048.92,5696.1 5038.75,5701.01C5028.59,5705.92 5017.13,5713.75 5004.38,5724.52L4969.78,5894.77C4969.39,5896.68 4968.48,5898.24 4967.03,5899.44C4965.6,5900.64 4963.39,5901.44 4960.42,5901.83C4957.45,5902.23 4953.62,5902.19 4948.93,5901.74C4944.24,5901.28 4938.35,5900.34 4931.27,5898.9C4924.19,5897.46 4918.4,5896.03 4913.9,5894.62C4909.41,5893.21 4905.87,5891.74 4903.29,5890.22C4900.71,5888.7 4898.99,5887.11 4898.13,5885.44C4897.28,5883.77 4897.04,5881.98 4897.43,5880.06L4949.47,5623.97C4949.86,5622.06 4950.68,5620.48 4951.93,5619.24C4953.18,5618 4955.14,5617.15 4957.83,5616.7C4960.51,5616.25 4963.86,5616.18 4967.88,5616.5C4971.9,5616.82 4976.88,5617.58 4982.81,5618.79C4988.94,5620.03 4993.96,5621.3 4997.88,5622.6C5001.81,5623.89 5004.77,5625.24 5006.78,5626.65C5008.78,5628.05 5010.12,5629.57 5010.78,5631.2C5011.45,5632.83 5011.59,5634.6 5011.2,5636.51L5005.19,5666.09C5022.47,5653.65 5038.91,5645.04 5054.54,5640.24C5070.16,5635.44 5085.63,5634.6 5100.94,5637.71C5111.47,5639.85 5120.72,5642.88 5128.69,5646.79C5136.67,5650.7 5143.54,5655.39 5149.31,5660.84C5155.07,5666.3 5159.77,5672.39 5163.38,5679.1C5167,5685.82 5169.72,5693.04 5171.53,5700.79C5180.86,5694.11 5189.81,5688.56 5198.39,5684.12C5206.96,5679.69 5215.22,5676.33 5223.15,5674.06C5231.09,5671.78 5238.83,5670.47 5246.38,5670.11C5253.93,5669.75 5261.43,5670.33 5268.9,5671.84C5285.93,5675.31 5299.7,5681.09 5310.21,5689.21C5320.72,5697.32 5328.56,5707.04 5333.73,5718.35C5338.91,5729.67 5341.69,5742.24 5342.07,5756.07C5342.44,5769.9 5341.14,5784.18 5338.14,5798.92L5304.82,5962.86Z" style="fill:rgb(255,196,81);fill-rule:nonzero;"/>
            <path d="M5874.63,5969.09C5870.79,5973.52 5867.37,5977.08 5864.38,5979.79C5861.39,5982.49 5858.72,5984.38 5856.37,5985.44C5854.02,5986.51 5851.95,5987.04 5850.15,5987.03C5848.35,5987.02 5846.78,5986.43 5845.46,5985.28L5751.85,5904.07L5685.04,5981.07L5772.89,6057.3C5774.22,6058.45 5775.07,6059.84 5775.47,6061.48C5775.86,6063.11 5775.69,6065.16 5774.97,6067.64C5774.24,6070.11 5772.79,6072.98 5770.6,6076.26C5768.4,6079.53 5765.39,6083.37 5761.55,6087.8C5757.71,6092.23 5754.32,6095.75 5751.4,6098.38C5748.47,6101.01 5745.77,6102.94 5743.29,6104.15C5740.82,6105.36 5738.71,6105.93 5736.97,6105.84C5735.23,6105.76 5733.7,6105.14 5732.38,6103.99L5644.53,6027.77L5551.98,6134.42C5550.57,6136.05 5548.91,6137.07 5547.01,6137.48C5545.1,6137.89 5542.65,6137.51 5539.66,6136.34C5536.67,6135.16 5533.14,6133.2 5529.06,6130.44C5524.99,6127.68 5520.08,6123.81 5514.32,6118.82C5508.72,6113.95 5504.23,6109.67 5500.85,6105.96C5497.47,6102.26 5495.03,6099.04 5493.52,6096.31C5492.01,6093.57 5491.29,6091.2 5491.35,6089.19C5491.42,6087.18 5492.15,6085.36 5493.56,6083.74L5718.78,5824.17C5724.41,5817.68 5730.13,5814.43 5735.95,5814.44C5741.76,5814.44 5747.11,5816.55 5751.97,5820.78L5886.74,5937.71C5888.06,5938.86 5888.89,5940.29 5889.22,5941.99C5889.55,5943.7 5889.32,5945.83 5888.53,5948.38C5887.74,5950.93 5886.19,5953.91 5883.87,5957.33C5881.55,5960.74 5878.47,5964.67 5874.63,5969.09Z" style="fill:rgb(255,196,81);fill-rule:nonzero;"/>
            <path d="M5735.37,6330.6C5733.83,6331.8 5732.12,6332.38 5730.24,6332.36C5728.37,6332.33 5726.17,6331.5 5723.66,6329.87C5721.15,6328.24 5718.26,6325.72 5715,6322.32C5711.73,6318.92 5707.88,6314.37 5703.44,6308.67C5699,6302.97 5695.53,6298.12 5693.04,6294.12C5690.54,6290.12 5688.81,6286.71 5687.84,6283.87C5686.87,6281.04 5686.6,6278.71 5687.04,6276.88C5687.48,6275.06 5688.46,6273.55 5690,6272.35L5895.72,6112.14C5897.26,6110.94 5898.97,6110.35 5900.84,6110.37C5902.72,6110.4 5904.95,6111.19 5907.54,6112.77C5910.13,6114.34 5913.09,6116.8 5916.43,6120.14C5919.78,6123.48 5923.67,6128 5928.11,6133.7C5932.55,6139.4 5935.98,6144.28 5938.4,6148.34C5940.81,6152.4 5942.47,6155.87 5943.36,6158.77C5944.25,6161.66 5944.48,6164.02 5944.05,6165.85C5943.61,6167.67 5942.62,6169.18 5941.08,6170.38L5735.37,6330.6ZM6014.77,6120.05C6003.06,6129.17 5993.11,6133.08 5984.92,6131.79C5976.73,6130.49 5967.6,6123.37 5957.51,6110.43C5947.31,6097.33 5942.6,6086.82 5943.37,6078.92C5944.15,6071.01 5950.16,6062.68 5961.41,6053.92C5973.12,6044.8 5983.08,6040.82 5991.28,6041.98C5999.49,6043.14 6008.69,6050.27 6018.9,6063.36C6028.98,6076.31 6033.62,6086.8 6032.83,6094.84C6032.04,6102.89 6026.02,6111.29 6014.77,6120.05Z" style="fill:rgb(255,196,81);fill-rule:nonzero;"/>
            <path d="M5888.53,6617.5C5886.76,6618.32 5884.96,6618.5 5883.14,6618.05C5881.32,6617.6 5879.39,6616.34 5877.36,6614.27C5875.32,6612.19 5873.08,6609.09 5870.63,6604.95C5868.19,6600.81 5865.49,6595.55 5862.54,6589.16C5859.51,6582.6 5857.22,6577.05 5855.65,6572.5C5854.09,6567.95 5853.18,6564.23 5852.92,6561.34C5852.66,6558.44 5852.95,6556.16 5853.79,6554.48C5854.63,6552.8 5855.93,6551.55 5857.71,6550.74L5993.1,6488.23C6004.62,6482.91 6013.28,6477.89 6019.06,6473.18C6024.85,6468.47 6029.35,6463.43 6032.57,6458.07C6035.8,6452.71 6037.53,6446.91 6037.77,6440.66C6038.01,6434.42 6036.57,6427.93 6033.46,6421.2C6029.53,6412.68 6022.46,6405.52 6012.24,6399.69C6002.02,6393.87 5988.8,6389 5972.59,6385.09L5814.85,6457.9C5813.08,6458.72 5811.28,6458.91 5809.46,6458.46C5807.64,6458.01 5805.69,6456.7 5803.62,6454.54C5801.54,6452.38 5799.3,6449.27 5796.9,6445.22C5794.49,6441.17 5791.77,6435.86 5788.74,6429.3C5785.71,6422.74 5783.44,6417.23 5781.91,6412.77C5780.39,6408.31 5779.48,6404.59 5779.18,6401.61C5778.88,6398.63 5779.15,6396.3 5779.99,6394.62C5780.83,6392.94 5782.13,6391.69 5783.91,6390.87L6021.17,6281.34C6022.94,6280.52 6024.7,6280.25 6026.44,6280.52C6028.18,6280.79 6030.03,6281.88 6031.98,6283.77C6033.93,6285.67 6035.96,6288.33 6038.09,6291.76C6040.21,6295.19 6042.54,6299.66 6045.07,6305.16C6047.69,6310.83 6049.64,6315.63 6050.92,6319.56C6052.19,6323.49 6052.86,6326.68 6052.91,6329.13C6052.97,6331.57 6052.53,6333.55 6051.61,6335.05C6050.69,6336.55 6049.35,6337.71 6047.57,6338.53L6020.18,6351.18C6040.42,6357.75 6057.22,6366.18 6070.58,6376.47C6083.93,6386.76 6094.01,6399.27 6100.8,6413.99C6108.25,6430.12 6111.87,6444.96 6111.67,6458.5C6111.47,6472.04 6108.38,6484.33 6102.4,6495.37C6096.41,6506.42 6088,6516.27 6077.16,6524.93C6066.31,6533.6 6052.29,6541.9 6035.09,6549.84L5888.53,6617.5Z" style="fill:rgb(255,196,81);fill-rule:nonzero;"/>
            <path d="M5939.45,6938.09C5937.32,6938.36 5935.47,6938.1 5933.89,6937.32C5932.32,6936.53 5930.9,6935.04 5929.64,6932.83C5928.38,6930.63 5927.3,6927.56 5926.41,6923.64C5925.53,6919.72 5924.72,6914.85 5923.99,6909.03C5923.21,6902.83 5922.77,6897.77 5922.67,6893.85C5922.57,6889.92 5922.85,6886.69 5923.52,6884.14C5924.18,6881.6 5925.17,6879.7 5926.49,6878.45C5927.81,6877.2 5929.54,6876.45 5931.67,6876.18L5960.45,6872.56C5944.43,6860.99 5931.53,6848.39 5921.74,6834.76C5911.96,6821.13 5905.94,6805.4 5903.7,6787.57C5901.22,6767.8 5902.95,6750.61 5908.88,6735.98C5914.82,6721.36 5923.74,6708.92 5935.64,6698.66C5947.54,6688.41 5961.92,6680.25 5978.78,6674.2C5995.63,6668.14 6013.65,6663.91 6032.84,6661.5C6055.9,6658.6 6076.95,6658.47 6095.98,6661.09C6115.01,6663.72 6131.61,6668.97 6145.79,6676.83C6159.97,6684.69 6171.43,6695.26 6180.19,6708.53C6188.94,6721.8 6194.47,6737.64 6196.79,6756.05C6198.61,6770.59 6197.32,6784.13 6192.89,6796.7C6188.47,6809.26 6181.27,6822.08 6171.29,6835.14L6311.69,6817.5C6313.63,6817.25 6315.44,6817.57 6317.13,6818.44C6318.81,6819.31 6320.36,6821.08 6321.78,6823.76C6323.2,6826.43 6324.49,6830.06 6325.66,6834.64C6326.82,6839.22 6327.86,6845.09 6328.76,6852.26C6329.66,6859.43 6330.11,6865.38 6330.12,6870.1C6330.12,6874.83 6329.76,6878.61 6329.03,6881.46C6328.31,6884.31 6327.24,6886.41 6325.84,6887.77C6324.44,6889.12 6322.76,6889.92 6320.83,6890.17L5939.45,6938.09ZM6103.57,6843.65C6115.43,6831.53 6124.24,6820.24 6130.02,6809.77C6135.79,6799.3 6138.01,6788.83 6136.7,6778.37C6135.51,6768.87 6132.1,6760.98 6126.49,6754.7C6120.88,6748.42 6113.84,6743.69 6105.37,6740.52C6096.9,6737.35 6087.64,6735.37 6077.6,6734.56C6067.56,6733.76 6057.4,6734 6047.13,6735.29C6036.28,6736.66 6025.83,6738.86 6015.78,6741.89C6005.73,6744.93 5996.93,6748.93 5989.39,6753.92C5981.84,6758.9 5976.06,6764.99 5972.05,6772.19C5968.03,6779.39 5966.65,6788.02 5967.92,6798.1C5968.55,6803.14 5969.9,6807.94 5971.94,6812.51C5973.99,6817.07 5976.98,6821.62 5980.89,6826.15C5984.81,6830.67 5989.76,6835.22 5995.75,6839.78C6001.73,6844.34 6008.99,6849.24 6017.52,6854.47L6103.57,6843.65Z" style="fill:rgb(255,196,81);fill-rule:nonzero;"/>
            <path d="M6026.41,7279.43C6017.58,7277.8 6011.41,7274.62 6007.92,7269.9C6004.42,7265.18 6003.31,7259.36 6004.6,7252.45L6033.58,7096.03C6022.64,7094 6012.46,7093.46 6003.05,7094.39C5993.64,7095.33 5985.29,7098.06 5977.99,7102.56C5970.7,7107.07 5964.6,7113.49 5959.68,7121.81C5954.76,7130.14 5951.14,7140.54 5948.83,7153.03C5946.48,7165.7 5945.33,7177.01 5945.37,7186.95C5945.42,7196.89 5945.9,7205.57 5946.81,7212.99C5947.71,7220.4 5948.65,7226.59 5949.62,7231.53C5950.6,7236.48 5950.81,7240.4 5950.28,7243.28C5949.96,7245.01 5949.36,7246.38 5948.47,7247.41C5947.58,7248.44 5946.21,7249.18 5944.34,7249.62C5942.47,7250.07 5939.92,7250.15 5936.7,7249.85C5933.47,7249.55 5929.46,7248.95 5924.66,7248.06C5920.44,7247.28 5916.85,7246.52 5913.91,7245.77C5910.97,7245.03 5908.48,7244.27 5906.44,7243.49C5904.4,7242.72 5902.73,7241.82 5901.43,7240.78C5900.13,7239.74 5898.93,7238.48 5897.81,7236.98C5896.7,7235.48 5895.51,7231.74 5894.23,7225.74C5892.96,7219.74 5892.02,7212.22 5891.42,7203.17C5890.81,7194.12 5890.72,7183.87 5891.15,7172.43C5891.59,7160.99 5892.98,7148.93 5895.32,7136.26C5899.56,7113.4 5906.15,7093.92 5915.1,7077.8C5924.04,7061.68 5935.44,7048.94 5949.29,7039.59C5963.14,7030.24 5979.52,7024.38 5998.43,7022.03C6017.34,7019.67 6038.8,7020.72 6062.8,7025.17C6085.66,7029.4 6105.7,7036.2 6122.94,7045.55C6140.18,7054.9 6154.13,7066.43 6164.8,7080.12C6175.47,7093.82 6182.66,7109.4 6186.38,7126.88C6190.09,7144.35 6190.06,7163.27 6186.29,7183.62C6182.31,7205.13 6175.73,7222.93 6166.56,7237.03C6157.4,7251.12 6146.29,7262.02 6133.24,7269.73C6120.19,7277.45 6105.56,7282.18 6089.34,7283.94C6073.12,7285.71 6055.98,7284.91 6037.93,7281.57L6026.41,7279.43ZM6060.18,7212.99C6080.43,7217.34 6097.17,7216.22 6110.41,7209.64C6123.65,7203.05 6131.95,7190.64 6135.34,7172.39C6137.05,7163.18 6136.8,7154.84 6134.61,7147.38C6132.41,7139.92 6128.81,7133.39 6123.79,7127.79C6118.77,7122.19 6112.49,7117.46 6104.97,7113.58C6097.44,7109.7 6089.2,7106.74 6080.25,7104.68L6060.18,7212.99Z" style="fill:rgb(255,196,81);fill-rule:nonzero;"/>
            <path d="M6004.91,7568C5998.58,7564.94 5993.48,7562.25 5989.61,7559.94C5985.73,7557.63 5982.82,7555.57 5980.88,7553.77C5978.93,7551.96 5977.8,7550.27 5977.47,7548.7C5977.15,7547.13 5977.41,7545.47 5978.26,7543.71C5978.94,7542.3 5980.01,7540.87 5981.48,7539.41C5982.95,7537.95 5984.56,7536.29 5986.33,7534.43C5988.1,7532.58 5989.93,7530.48 5991.82,7528.14C5993.71,7525.8 5995.42,7523.05 5996.95,7519.88C5998.74,7516.19 5999.78,7512.14 6000.07,7507.72C6000.36,7503.31 5999.89,7498.36 5998.64,7492.87C5997.39,7487.38 5995.17,7481.21 5991.98,7474.35C5988.79,7467.49 5984.52,7459.73 5979.16,7451.06L5832.55,7380.09C5830.79,7379.24 5829.51,7377.97 5828.7,7376.28C5827.89,7374.58 5827.66,7372.25 5828.02,7369.27C5828.37,7366.3 5829.35,7362.6 5830.95,7358.16C5832.56,7353.73 5834.93,7348.26 5838.08,7341.76C5841.23,7335.26 5844.05,7330 5846.53,7325.99C5849.01,7321.99 5851.31,7318.92 5853.42,7316.8C5855.53,7314.67 5857.5,7313.4 5859.33,7312.99C5861.16,7312.57 5862.95,7312.79 5864.71,7313.64L6099.93,7427.49C6101.69,7428.34 6103.02,7429.53 6103.91,7431.05C6104.8,7432.56 6105.14,7434.68 6104.91,7437.39C6104.68,7440.1 6103.92,7443.36 6102.61,7447.18C6101.31,7450.99 6099.34,7455.63 6096.7,7461.08C6093.97,7466.7 6091.5,7471.26 6089.27,7474.74C6087.05,7478.22 6085.01,7480.75 6083.15,7482.35C6081.29,7483.94 6079.49,7484.86 6077.74,7485.1C6076,7485.35 6074.25,7485.04 6072.49,7484.19L6043.22,7470.02C6049.03,7480.43 6053.48,7489.74 6056.55,7497.96C6059.63,7506.17 6061.64,7513.55 6062.6,7520.09C6063.56,7526.63 6063.51,7532.68 6062.44,7538.24C6061.38,7543.8 6059.65,7549.04 6057.27,7553.96C6056.17,7556.25 6054.84,7558.65 6053.3,7561.15C6051.76,7563.66 6050,7566.18 6048.03,7568.69C6046.05,7571.21 6044.16,7573.33 6042.34,7575.05C6040.53,7576.78 6038.95,7577.91 6037.61,7578.45C6036.26,7579 6034.95,7579.23 6033.68,7579.16C6032.42,7579.09 6030.77,7578.78 6028.76,7578.24C6026.74,7577.7 6023.85,7576.62 6020.07,7575.01C6016.29,7573.4 6011.24,7571.06 6004.91,7568Z" style="fill:rgb(255,196,81);fill-rule:nonzero;"/>
        </g>
    </g>
</svg>
